<svg width="133" height="142" viewBox="-66 -71 266 284" fill="none" xmlns="http://www.w3.org/2000/svg">
<g clip-path="url(#clip0_16_25)">
<path d="M82.7807 95.0025C83.5775 95.0025 84.2227 95.3799 84.2227 95.8454C84.2227 96.3115 83.5775 96.689 82.7807 96.689H49.6116C48.8148 96.689 48.1692 96.3115 48.1692 95.8454C48.1692 95.3799 48.8148 95.0025 49.6116 95.0025H82.7807ZM82.7807 92.7173H49.6116C47.4864 92.7173 45.884 94.0618 45.884 95.8454C45.884 97.6294 47.4867 98.9742 49.6116 98.9742H82.7807C84.9052 98.9742 86.5079 97.6294 86.5079 95.8454C86.5079 94.0618 84.9052 92.7173 82.7807 92.7173Z" fill="black"/>
<path d="M82.7807 106.802C83.5775 106.802 84.2227 107.18 84.2227 107.645C84.2227 108.111 83.5775 108.488 82.7807 108.488H49.6116C48.8148 108.488 48.1692 108.111 48.1692 107.645C48.1692 107.18 48.8148 106.802 49.6116 106.802H82.7807ZM82.7807 104.517H49.6116C47.4864 104.517 45.884 105.861 45.884 107.645C45.884 109.429 47.4867 110.774 49.6116 110.774H82.7807C84.9052 110.774 86.5079 109.429 86.5079 107.645C86.5079 105.861 84.9052 104.517 82.7807 104.517Z" fill="black"/>
<path d="M86.3623 101.745C86.3623 103.845 84.2295 105.547 81.5996 105.547H50.7918C48.1615 105.547 46.0291 103.844 46.0291 101.745C46.0291 99.6441 48.1615 97.9424 50.7918 97.9424H81.5996C84.2302 97.942 86.3623 99.6445 86.3623 101.745Z" stroke="black" stroke-width="2.28522"/>
<path d="M41.9868 84.6629C46.3295 86.9462 49.7101 90.2247 51.8929 93.8205H61.2306C57.1363 69.4464 38.4284 57.2959 20.6277 59.3355C0.333445 61.6607 -10.5587 93.7352 20.8166 101.485C15.7129 92.0342 23.6514 75.0231 41.9868 84.6629Z" fill="black"/>
<path d="M52.8686 109.717C52.7715 109.871 52.6767 110.028 52.5712 110.179C48.2232 116.417 33.661 113.014 41.7888 99.4059C28.0523 97.598 24.4021 110.557 28.3715 117.551C32.7336 126.467 51.787 129.14 58.9972 116.417C60.1109 114.451 60.8631 112.162 61.3373 109.717H52.8686Z" fill="black"/>
<path d="M41.9868 84.6629C46.3295 86.9462 49.7101 90.2247 51.8929 93.8205H61.2306C57.1363 69.4464 38.4284 57.2959 20.6277 59.3355C0.333445 61.6607 -10.5587 93.7352 20.8166 101.485C15.7129 92.0342 23.6514 75.0231 41.9868 84.6629Z" stroke="black" stroke-width="2.28522"/>
<path d="M52.8686 109.717C52.7715 109.871 52.6767 110.028 52.5712 110.179C48.2232 116.417 33.661 113.014 41.7888 99.4059C28.0523 97.598 24.4021 110.557 28.3715 117.551C32.7336 126.467 51.787 129.14 58.9972 116.417C60.1109 114.451 60.8631 112.162 61.3373 109.717H52.8686Z" stroke="black" stroke-width="2.28522"/>
<path d="M82.5608 35.987C80.0875 30.8498 68.8793 10.0821 66.0247 3.04102C63.1704 10.0818 52.046 30.8494 49.5719 35.9873C47.3902 40.517 42.9112 50.6401 48.43 60.916C52.3065 68.1342 58.6365 78.8648 60.9431 93.7766H71.2825C73.4935 78.8161 79.7976 68.1864 83.7023 60.9156C89.2211 50.6398 84.7417 40.5166 82.5608 35.987Z" fill="black"/>
<path d="M71.0959 114.617C70.8914 112.946 70.7417 111.313 70.6415 109.717H61.6888C61.5902 111.446 61.4386 113.212 61.2169 115.026C56.4001 118.128 58.2778 124.824 52.177 128.826C56.0093 128.927 59.1359 128.176 60.1448 126.764C60.1448 130.858 63.8076 134.31 66.1953 139.278C68.4135 134.282 71.9875 130.101 71.9875 126.764C72.9961 128.176 76.1226 128.927 79.9557 128.826C74.3615 125.394 76.5664 119.108 71.0959 114.617Z" fill="black"/>
<path d="M82.5608 35.987C80.0875 30.8498 68.8793 10.0821 66.0247 3.04102C63.1704 10.0818 52.046 30.8494 49.5719 35.9873C47.3902 40.517 42.9112 50.6401 48.43 60.916C52.3065 68.1342 58.6365 78.8648 60.9431 93.7766H71.2825C73.4935 78.8161 79.7976 68.1864 83.7023 60.9156C89.2211 50.6398 84.7417 40.5166 82.5608 35.987Z" stroke="black" stroke-width="2.28522"/>
<path d="M71.0959 114.617C70.8914 112.946 70.7417 111.313 70.6415 109.717H61.6888C61.5902 111.446 61.4386 113.212 61.2169 115.026C56.4001 118.128 58.2778 124.824 52.177 128.826C56.0093 128.927 59.1359 128.176 60.1448 126.764C60.1448 130.858 63.8076 134.31 66.1953 139.278C68.4135 134.282 71.9875 130.101 71.9875 126.764C72.9961 128.176 76.1226 128.927 79.9557 128.826C74.3615 125.394 76.5664 119.108 71.0959 114.617Z" stroke="black" stroke-width="2.28522"/>
<path d="M111.477 59.3355C93.6861 57.2971 74.9904 69.4319 70.8808 93.7767H80.2377C82.4216 90.1981 85.7919 86.9371 90.117 84.6629C108.452 75.0227 116.39 92.0342 111.287 101.485C142.663 93.7352 131.771 61.6607 111.477 59.3355Z" fill="black"/>
<path d="M90.3155 99.406C98.4432 113.014 83.8807 116.417 79.5327 110.179C79.4272 110.028 79.3327 109.871 79.2352 109.717H70.7673C71.2411 112.162 71.9937 114.451 73.1074 116.417C80.3176 129.14 99.371 126.467 103.733 117.551C107.702 110.557 104.052 97.598 90.3155 99.406Z" fill="black"/>
<path d="M111.477 59.3355C93.6861 57.2971 74.9904 69.4319 70.8808 93.7767H80.2377C82.4216 90.1981 85.7919 86.9371 90.117 84.6629C108.452 75.0227 116.39 92.0342 111.287 101.485C142.663 93.7352 131.771 61.6607 111.477 59.3355Z" stroke="black" stroke-width="2.28522"/>
<path d="M90.3155 99.406C98.4432 113.014 83.8807 116.417 79.5327 110.179C79.4272 110.028 79.3327 109.871 79.2352 109.717H70.7673C71.2411 112.162 71.9937 114.451 73.1074 116.417C80.3176 129.14 99.371 126.467 103.733 117.551C107.702 110.557 104.052 97.598 90.3155 99.406Z" stroke="black" stroke-width="2.28522"/>
</g>
<defs>
<clipPath id="clip0_16_25">
<rect width="132.104" height="142.002" fill="white"/>
</clipPath>
</defs>
</svg>
